<mxfile host="65bd71144e" scale="5" border="10">
    <diagram id="Jwi4ZK6NefV9GYiuC1eN" name="基本フロー">
        <mxGraphModel dx="1444" dy="2579" grid="1" gridSize="10" guides="1" tooltips="1" connect="1" arrows="1" fold="1" page="1" pageScale="1" pageWidth="1169" pageHeight="827" background="#ffffff" math="0" shadow="0">
            <root>
                <mxCell id="0"/>
                <mxCell id="1" parent="0"/>
                <mxCell id="72" style="edgeStyle=none;html=1;endArrow=none;endFill=0;dashed=1;startArrow=none;" parent="1" source="81" edge="1">
                    <mxGeometry relative="1" as="geometry">
                        <mxPoint x="270" y="-880" as="targetPoint"/>
                    </mxGeometry>
                </mxCell>
                <mxCell id="38" value="&lt;p style=&quot;margin:0px;margin-top:4px;text-align:center;&quot;&gt;&lt;i&gt;&amp;lt;&amp;lt;boundary&amp;gt;&amp;gt;&lt;/i&gt;&lt;br&gt;&lt;b&gt;:DiariesView&lt;/b&gt;&lt;/p&gt;" style="verticalAlign=top;align=left;overflow=fill;fontSize=12;fontFamily=Helvetica;html=1;" parent="1" vertex="1">
                    <mxGeometry x="180" y="-1500" width="180" height="40" as="geometry"/>
                </mxCell>
                <mxCell id="76" style="edgeStyle=none;html=1;dashed=1;endArrow=none;endFill=0;startArrow=none;" parent="1" source="78" edge="1">
                    <mxGeometry relative="1" as="geometry">
                        <mxPoint x="74.99999999999989" y="-880" as="targetPoint"/>
                    </mxGeometry>
                </mxCell>
                <mxCell id="52" value=":User" style="shape=umlActor;verticalLabelPosition=bottom;verticalAlign=top;html=1;outlineConnect=0;" parent="1" vertex="1">
                    <mxGeometry x="60" y="-1520" width="30" height="60" as="geometry"/>
                </mxCell>
                <mxCell id="74" style="edgeStyle=none;html=1;dashed=1;endArrow=none;endFill=0;startArrow=none;" parent="1" source="86" edge="1">
                    <mxGeometry relative="1" as="geometry">
                        <mxPoint x="560" y="-880" as="targetPoint"/>
                    </mxGeometry>
                </mxCell>
                <mxCell id="57" value="&lt;p style=&quot;margin:0px;margin-top:4px;text-align:center;&quot;&gt;&lt;i&gt;&amp;lt;&amp;lt;control&amp;gt;&amp;gt;&lt;/i&gt;&lt;br&gt;&lt;b&gt;:DiaryController&lt;/b&gt;&lt;/p&gt;" style="verticalAlign=top;align=left;overflow=fill;fontSize=12;fontFamily=Helvetica;html=1;" parent="1" vertex="1">
                    <mxGeometry x="470" y="-1500" width="180" height="40" as="geometry"/>
                </mxCell>
                <mxCell id="79" value="" style="edgeStyle=none;html=1;dashed=1;endArrow=none;endFill=0;" parent="1" source="52" target="78" edge="1">
                    <mxGeometry relative="1" as="geometry">
                        <mxPoint x="74.99999999999977" y="-880" as="targetPoint"/>
                        <mxPoint x="75" y="-1460" as="sourcePoint"/>
                    </mxGeometry>
                </mxCell>
                <mxCell id="89" style="edgeStyle=none;html=1;endArrow=block;endFill=1;" parent="1" source="78" edge="1">
                    <mxGeometry relative="1" as="geometry">
                        <mxPoint x="260" y="-1370" as="targetPoint"/>
                    </mxGeometry>
                </mxCell>
                <mxCell id="78" value="" style="html=1;points=[];perimeter=orthogonalPerimeter;" parent="1" vertex="1">
                    <mxGeometry x="70" y="-1400" width="10" height="400" as="geometry"/>
                </mxCell>
                <mxCell id="82" value="" style="edgeStyle=none;html=1;endArrow=none;endFill=0;dashed=1;" parent="1" source="38" target="81" edge="1">
                    <mxGeometry relative="1" as="geometry">
                        <mxPoint x="270" y="-880" as="targetPoint"/>
                        <mxPoint x="270" y="-1460" as="sourcePoint"/>
                    </mxGeometry>
                </mxCell>
                <mxCell id="90" style="edgeStyle=none;html=1;entryX=0;entryY=-0.006;entryDx=0;entryDy=0;entryPerimeter=0;endArrow=block;endFill=1;" parent="1" source="81" target="86" edge="1">
                    <mxGeometry relative="1" as="geometry"/>
                </mxCell>
                <mxCell id="81" value="" style="html=1;points=[];perimeter=orthogonalPerimeter;" parent="1" vertex="1">
                    <mxGeometry x="265" y="-1370" width="10" height="310" as="geometry"/>
                </mxCell>
                <mxCell id="85" value="" style="edgeStyle=none;html=1;dashed=1;endArrow=none;endFill=0;" parent="1" source="57" target="86" edge="1">
                    <mxGeometry relative="1" as="geometry">
                        <mxPoint x="560" y="-880" as="targetPoint"/>
                        <mxPoint x="560" y="-1460" as="sourcePoint"/>
                    </mxGeometry>
                </mxCell>
                <mxCell id="122" style="edgeStyle=none;html=1;entryX=0.317;entryY=0.001;entryDx=0;entryDy=0;entryPerimeter=0;" parent="1" source="86" target="120" edge="1">
                    <mxGeometry relative="1" as="geometry"/>
                </mxCell>
                <mxCell id="86" value="" style="html=1;points=[];perimeter=orthogonalPerimeter;" parent="1" vertex="1">
                    <mxGeometry x="555" y="-1340" width="10" height="230" as="geometry"/>
                </mxCell>
                <mxCell id="100" value="get(): diaries" style="text;html=1;align=center;verticalAlign=middle;resizable=0;points=[];autosize=1;strokeColor=none;fillColor=none;" parent="1" vertex="1">
                    <mxGeometry x="130" y="-1400" width="90" height="30" as="geometry"/>
                </mxCell>
                <mxCell id="103" value="get_user_diaries(current_user.id): diaries" style="text;html=1;align=center;verticalAlign=middle;resizable=0;points=[];autosize=1;strokeColor=none;fillColor=none;" parent="1" vertex="1">
                    <mxGeometry x="280" y="-1375" width="240" height="30" as="geometry"/>
                </mxCell>
                <mxCell id="110" value="&lt;p style=&quot;margin:0px;margin-top:4px;text-align:center;&quot;&gt;&lt;i&gt;&amp;lt;&amp;lt;entity&lt;/i&gt;&lt;i style=&quot;background-color: initial;&quot;&gt;&amp;gt;&amp;gt;&lt;/i&gt;&lt;/p&gt;&lt;p style=&quot;margin:0px;margin-top:4px;text-align:center;&quot;&gt;&lt;b&gt;:Diary&lt;/b&gt;&lt;/p&gt;" style="verticalAlign=top;align=left;overflow=fill;fontSize=12;fontFamily=Helvetica;html=1;" parent="1" vertex="1">
                    <mxGeometry x="750" y="-1500" width="180" height="40" as="geometry"/>
                </mxCell>
                <mxCell id="121" value="" style="edgeStyle=none;html=1;dashed=1;endArrow=none;endFill=0;exitX=0.5;exitY=1;exitDx=0;exitDy=0;" parent="1" source="110" target="120" edge="1">
                    <mxGeometry relative="1" as="geometry">
                        <mxPoint x="1080" y="-880" as="targetPoint"/>
                        <mxPoint x="1080" y="-1460" as="sourcePoint"/>
                    </mxGeometry>
                </mxCell>
                <mxCell id="120" value="" style="html=1;points=[];perimeter=orthogonalPerimeter;" parent="1" vertex="1">
                    <mxGeometry x="835" y="-1300" width="10" height="150" as="geometry"/>
                </mxCell>
                <mxCell id="148" value="" style="edgeStyle=none;html=1;dashed=1;endArrow=none;endFill=0;exitX=0.5;exitY=1;exitDx=0;exitDy=0;startArrow=none;" parent="1" source="120" edge="1">
                    <mxGeometry relative="1" as="geometry">
                        <mxPoint x="840" y="-880" as="targetPoint"/>
                        <mxPoint x="1080" y="-1200" as="sourcePoint"/>
                    </mxGeometry>
                </mxCell>
                <mxCell id="155" value="日記閲覧" style="text;html=1;align=center;verticalAlign=middle;resizable=0;points=[];autosize=1;strokeColor=none;fillColor=none;fontSize=32;" parent="1" vertex="1">
                    <mxGeometry x="10" y="-1640" width="150" height="50" as="geometry"/>
                </mxCell>
                <mxCell id="156" value="query.order_by(desc(Diary.create_at)).filter_by(user_id=user_id).all(): diaries" style="text;whiteSpace=wrap;html=1;" parent="1" vertex="1">
                    <mxGeometry x="574" y="-1330" width="426" height="40" as="geometry"/>
                </mxCell>
            </root>
        </mxGraphModel>
    </diagram>
</mxfile>